<mxfile host="app.diagrams.net" modified="2023-05-08T12:48:00.788Z" agent="5.0 (Macintosh; Intel Mac OS X 10_15_7) AppleWebKit/537.36 (KHTML, like Gecko) Chrome/112.0.0.0 Safari/537.36" etag="f9mPMgQCqg42F7YKLNo7" version="21.0.6" type="github">
  <diagram name="第 1 页" id="Y91na4Gqch_BXD1U8QAK">
    <mxGraphModel dx="1242" dy="1907" grid="1" gridSize="10" guides="1" tooltips="1" connect="1" arrows="1" fold="1" page="1" pageScale="1" pageWidth="827" pageHeight="1169" math="0" shadow="0">
      <root>
        <mxCell id="0" />
        <mxCell id="1" parent="0" />
        <mxCell id="WFpVP7fEPTeog7pK3lov-26" style="edgeStyle=orthogonalEdgeStyle;rounded=0;orthogonalLoop=1;jettySize=auto;html=1;entryX=0.5;entryY=1;entryDx=0;entryDy=0;" edge="1" parent="1" source="WFpVP7fEPTeog7pK3lov-11" target="WFpVP7fEPTeog7pK3lov-22">
          <mxGeometry relative="1" as="geometry" />
        </mxCell>
        <mxCell id="WFpVP7fEPTeog7pK3lov-27" value="2: onPacketReceived" style="edgeLabel;html=1;align=center;verticalAlign=middle;resizable=0;points=[];" vertex="1" connectable="0" parent="WFpVP7fEPTeog7pK3lov-26">
          <mxGeometry x="0.08" y="-1" relative="1" as="geometry">
            <mxPoint as="offset" />
          </mxGeometry>
        </mxCell>
        <mxCell id="WFpVP7fEPTeog7pK3lov-11" value="cricket::BaseChannel" style="swimlane;fontStyle=1;align=center;verticalAlign=top;childLayout=stackLayout;horizontal=1;startSize=26;horizontalStack=0;resizeParent=1;resizeParentMax=0;resizeLast=0;collapsible=1;marginBottom=0;whiteSpace=wrap;html=1;" vertex="1" collapsed="1" parent="1">
          <mxGeometry x="909" y="540" width="210" height="30" as="geometry">
            <mxRectangle x="310" y="290" width="160" height="86" as="alternateBounds" />
          </mxGeometry>
        </mxCell>
        <mxCell id="WFpVP7fEPTeog7pK3lov-12" value="+ field: type&lt;br&gt;" style="text;strokeColor=none;fillColor=none;align=left;verticalAlign=top;spacingLeft=4;spacingRight=4;overflow=hidden;rotatable=0;points=[[0,0.5],[1,0.5]];portConstraint=eastwest;whiteSpace=wrap;html=1;" vertex="1" parent="WFpVP7fEPTeog7pK3lov-11">
          <mxGeometry y="26" width="160" height="26" as="geometry" />
        </mxCell>
        <mxCell id="WFpVP7fEPTeog7pK3lov-13" value="" style="line;strokeWidth=1;fillColor=none;align=left;verticalAlign=middle;spacingTop=-1;spacingLeft=3;spacingRight=3;rotatable=0;labelPosition=right;points=[];portConstraint=eastwest;strokeColor=inherit;" vertex="1" parent="WFpVP7fEPTeog7pK3lov-11">
          <mxGeometry y="52" width="160" height="8" as="geometry" />
        </mxCell>
        <mxCell id="WFpVP7fEPTeog7pK3lov-14" value="+ method(type): type" style="text;strokeColor=none;fillColor=none;align=left;verticalAlign=top;spacingLeft=4;spacingRight=4;overflow=hidden;rotatable=0;points=[[0,0.5],[1,0.5]];portConstraint=eastwest;whiteSpace=wrap;html=1;" vertex="1" parent="WFpVP7fEPTeog7pK3lov-11">
          <mxGeometry y="60" width="160" height="26" as="geometry" />
        </mxCell>
        <mxCell id="WFpVP7fEPTeog7pK3lov-17" value="1: OnRtpPacket" style="edgeStyle=orthogonalEdgeStyle;rounded=0;orthogonalLoop=1;jettySize=auto;html=1;" edge="1" parent="1" source="WFpVP7fEPTeog7pK3lov-16" target="WFpVP7fEPTeog7pK3lov-11">
          <mxGeometry relative="1" as="geometry" />
        </mxCell>
        <mxCell id="WFpVP7fEPTeog7pK3lov-16" value="RtpDemuxer" style="html=1;whiteSpace=wrap;" vertex="1" parent="1">
          <mxGeometry x="959" y="623" width="110" height="50" as="geometry" />
        </mxCell>
        <mxCell id="WFpVP7fEPTeog7pK3lov-32" style="edgeStyle=orthogonalEdgeStyle;rounded=0;orthogonalLoop=1;jettySize=auto;html=1;" edge="1" parent="1" source="WFpVP7fEPTeog7pK3lov-22" target="WFpVP7fEPTeog7pK3lov-28">
          <mxGeometry relative="1" as="geometry" />
        </mxCell>
        <mxCell id="WFpVP7fEPTeog7pK3lov-33" value="3: DeliverPacket" style="edgeLabel;html=1;align=center;verticalAlign=middle;resizable=0;points=[];" vertex="1" connectable="0" parent="WFpVP7fEPTeog7pK3lov-32">
          <mxGeometry x="-0.2571" y="2" relative="1" as="geometry">
            <mxPoint x="-7" y="-2" as="offset" />
          </mxGeometry>
        </mxCell>
        <mxCell id="WFpVP7fEPTeog7pK3lov-22" value="cricket::WebRtcVideoChannel" style="swimlane;fontStyle=1;align=center;verticalAlign=top;childLayout=stackLayout;horizontal=1;startSize=26;horizontalStack=0;resizeParent=1;resizeParentMax=0;resizeLast=0;collapsible=1;marginBottom=0;whiteSpace=wrap;html=1;" vertex="1" collapsed="1" parent="1">
          <mxGeometry x="899" y="460" width="230" height="30" as="geometry">
            <mxRectangle x="500" y="370" width="160" height="86" as="alternateBounds" />
          </mxGeometry>
        </mxCell>
        <mxCell id="WFpVP7fEPTeog7pK3lov-23" value="+ field: type" style="text;strokeColor=none;fillColor=none;align=left;verticalAlign=top;spacingLeft=4;spacingRight=4;overflow=hidden;rotatable=0;points=[[0,0.5],[1,0.5]];portConstraint=eastwest;whiteSpace=wrap;html=1;" vertex="1" parent="WFpVP7fEPTeog7pK3lov-22">
          <mxGeometry y="26" width="160" height="26" as="geometry" />
        </mxCell>
        <mxCell id="WFpVP7fEPTeog7pK3lov-24" value="" style="line;strokeWidth=1;fillColor=none;align=left;verticalAlign=middle;spacingTop=-1;spacingLeft=3;spacingRight=3;rotatable=0;labelPosition=right;points=[];portConstraint=eastwest;strokeColor=inherit;" vertex="1" parent="WFpVP7fEPTeog7pK3lov-22">
          <mxGeometry y="52" width="160" height="8" as="geometry" />
        </mxCell>
        <mxCell id="WFpVP7fEPTeog7pK3lov-25" value="+ method(type): type" style="text;strokeColor=none;fillColor=none;align=left;verticalAlign=top;spacingLeft=4;spacingRight=4;overflow=hidden;rotatable=0;points=[[0,0.5],[1,0.5]];portConstraint=eastwest;whiteSpace=wrap;html=1;" vertex="1" parent="WFpVP7fEPTeog7pK3lov-22">
          <mxGeometry y="60" width="160" height="26" as="geometry" />
        </mxCell>
        <mxCell id="WFpVP7fEPTeog7pK3lov-38" style="edgeStyle=orthogonalEdgeStyle;rounded=0;orthogonalLoop=1;jettySize=auto;html=1;" edge="1" parent="1" source="WFpVP7fEPTeog7pK3lov-28" target="WFpVP7fEPTeog7pK3lov-34">
          <mxGeometry relative="1" as="geometry" />
        </mxCell>
        <mxCell id="WFpVP7fEPTeog7pK3lov-39" value="4: OnRtpPacket" style="edgeLabel;html=1;align=center;verticalAlign=middle;resizable=0;points=[];" vertex="1" connectable="0" parent="WFpVP7fEPTeog7pK3lov-38">
          <mxGeometry x="0.2174" y="-4" relative="1" as="geometry">
            <mxPoint x="7" y="3" as="offset" />
          </mxGeometry>
        </mxCell>
        <mxCell id="WFpVP7fEPTeog7pK3lov-28" value="webrtc::internal::Call" style="swimlane;fontStyle=1;align=center;verticalAlign=top;childLayout=stackLayout;horizontal=1;startSize=26;horizontalStack=0;resizeParent=1;resizeParentMax=0;resizeLast=0;collapsible=1;marginBottom=0;whiteSpace=wrap;html=1;" vertex="1" collapsed="1" parent="1">
          <mxGeometry x="539" y="461" width="200" height="30" as="geometry">
            <mxRectangle x="290" y="390" width="160" height="86" as="alternateBounds" />
          </mxGeometry>
        </mxCell>
        <mxCell id="WFpVP7fEPTeog7pK3lov-29" value="+ field: type" style="text;strokeColor=none;fillColor=none;align=left;verticalAlign=top;spacingLeft=4;spacingRight=4;overflow=hidden;rotatable=0;points=[[0,0.5],[1,0.5]];portConstraint=eastwest;whiteSpace=wrap;html=1;" vertex="1" parent="WFpVP7fEPTeog7pK3lov-28">
          <mxGeometry y="26" width="160" height="26" as="geometry" />
        </mxCell>
        <mxCell id="WFpVP7fEPTeog7pK3lov-30" value="" style="line;strokeWidth=1;fillColor=none;align=left;verticalAlign=middle;spacingTop=-1;spacingLeft=3;spacingRight=3;rotatable=0;labelPosition=right;points=[];portConstraint=eastwest;strokeColor=inherit;" vertex="1" parent="WFpVP7fEPTeog7pK3lov-28">
          <mxGeometry y="52" width="160" height="8" as="geometry" />
        </mxCell>
        <mxCell id="WFpVP7fEPTeog7pK3lov-31" value="+ method(type): type" style="text;strokeColor=none;fillColor=none;align=left;verticalAlign=top;spacingLeft=4;spacingRight=4;overflow=hidden;rotatable=0;points=[[0,0.5],[1,0.5]];portConstraint=eastwest;whiteSpace=wrap;html=1;" vertex="1" parent="WFpVP7fEPTeog7pK3lov-28">
          <mxGeometry y="60" width="160" height="26" as="geometry" />
        </mxCell>
        <mxCell id="WFpVP7fEPTeog7pK3lov-44" style="edgeStyle=orthogonalEdgeStyle;rounded=0;orthogonalLoop=1;jettySize=auto;html=1;" edge="1" parent="1" source="WFpVP7fEPTeog7pK3lov-34" target="WFpVP7fEPTeog7pK3lov-40">
          <mxGeometry relative="1" as="geometry" />
        </mxCell>
        <mxCell id="WFpVP7fEPTeog7pK3lov-45" value="OnRtpPacket" style="edgeLabel;html=1;align=center;verticalAlign=middle;resizable=0;points=[];" vertex="1" connectable="0" parent="WFpVP7fEPTeog7pK3lov-44">
          <mxGeometry x="-0.1803" relative="1" as="geometry">
            <mxPoint as="offset" />
          </mxGeometry>
        </mxCell>
        <mxCell id="WFpVP7fEPTeog7pK3lov-34" value="webrtc::RtpStreamReceiverController" style="swimlane;fontStyle=1;align=center;verticalAlign=top;childLayout=stackLayout;horizontal=1;startSize=26;horizontalStack=0;resizeParent=1;resizeParentMax=0;resizeLast=0;collapsible=1;marginBottom=0;whiteSpace=wrap;html=1;" vertex="1" collapsed="1" parent="1">
          <mxGeometry x="112" y="461" width="260" height="30" as="geometry">
            <mxRectangle x="200" y="460" width="260" height="86" as="alternateBounds" />
          </mxGeometry>
        </mxCell>
        <mxCell id="WFpVP7fEPTeog7pK3lov-35" value="+ field: type" style="text;strokeColor=none;fillColor=none;align=left;verticalAlign=top;spacingLeft=4;spacingRight=4;overflow=hidden;rotatable=0;points=[[0,0.5],[1,0.5]];portConstraint=eastwest;whiteSpace=wrap;html=1;" vertex="1" parent="WFpVP7fEPTeog7pK3lov-34">
          <mxGeometry y="26" width="260" height="26" as="geometry" />
        </mxCell>
        <mxCell id="WFpVP7fEPTeog7pK3lov-36" value="" style="line;strokeWidth=1;fillColor=none;align=left;verticalAlign=middle;spacingTop=-1;spacingLeft=3;spacingRight=3;rotatable=0;labelPosition=right;points=[];portConstraint=eastwest;strokeColor=inherit;" vertex="1" parent="WFpVP7fEPTeog7pK3lov-34">
          <mxGeometry y="52" width="260" height="8" as="geometry" />
        </mxCell>
        <mxCell id="WFpVP7fEPTeog7pK3lov-37" value="+ method(type): type" style="text;strokeColor=none;fillColor=none;align=left;verticalAlign=top;spacingLeft=4;spacingRight=4;overflow=hidden;rotatable=0;points=[[0,0.5],[1,0.5]];portConstraint=eastwest;whiteSpace=wrap;html=1;" vertex="1" parent="WFpVP7fEPTeog7pK3lov-34">
          <mxGeometry y="60" width="260" height="26" as="geometry" />
        </mxCell>
        <mxCell id="WFpVP7fEPTeog7pK3lov-50" style="edgeStyle=orthogonalEdgeStyle;rounded=0;orthogonalLoop=1;jettySize=auto;html=1;" edge="1" parent="1" source="WFpVP7fEPTeog7pK3lov-40" target="WFpVP7fEPTeog7pK3lov-46">
          <mxGeometry relative="1" as="geometry" />
        </mxCell>
        <mxCell id="WFpVP7fEPTeog7pK3lov-51" value="5: OnRtpPacket" style="edgeLabel;html=1;align=center;verticalAlign=middle;resizable=0;points=[];" vertex="1" connectable="0" parent="WFpVP7fEPTeog7pK3lov-50">
          <mxGeometry x="-0.2273" y="2" relative="1" as="geometry">
            <mxPoint x="8" y="2" as="offset" />
          </mxGeometry>
        </mxCell>
        <mxCell id="WFpVP7fEPTeog7pK3lov-40" value="webrtc::RtpDemuxer" style="swimlane;fontStyle=1;align=center;verticalAlign=top;childLayout=stackLayout;horizontal=1;startSize=26;horizontalStack=0;resizeParent=1;resizeParentMax=0;resizeLast=0;collapsible=1;marginBottom=0;whiteSpace=wrap;html=1;" vertex="1" collapsed="1" parent="1">
          <mxGeometry x="154" y="370" width="176" height="30" as="geometry">
            <mxRectangle x="200" y="460" width="260" height="86" as="alternateBounds" />
          </mxGeometry>
        </mxCell>
        <mxCell id="WFpVP7fEPTeog7pK3lov-41" value="+ field: type" style="text;strokeColor=none;fillColor=none;align=left;verticalAlign=top;spacingLeft=4;spacingRight=4;overflow=hidden;rotatable=0;points=[[0,0.5],[1,0.5]];portConstraint=eastwest;whiteSpace=wrap;html=1;" vertex="1" parent="WFpVP7fEPTeog7pK3lov-40">
          <mxGeometry y="26" width="260" height="26" as="geometry" />
        </mxCell>
        <mxCell id="WFpVP7fEPTeog7pK3lov-42" value="" style="line;strokeWidth=1;fillColor=none;align=left;verticalAlign=middle;spacingTop=-1;spacingLeft=3;spacingRight=3;rotatable=0;labelPosition=right;points=[];portConstraint=eastwest;strokeColor=inherit;" vertex="1" parent="WFpVP7fEPTeog7pK3lov-40">
          <mxGeometry y="52" width="260" height="8" as="geometry" />
        </mxCell>
        <mxCell id="WFpVP7fEPTeog7pK3lov-43" value="+ method(type): type" style="text;strokeColor=none;fillColor=none;align=left;verticalAlign=top;spacingLeft=4;spacingRight=4;overflow=hidden;rotatable=0;points=[[0,0.5],[1,0.5]];portConstraint=eastwest;whiteSpace=wrap;html=1;" vertex="1" parent="WFpVP7fEPTeog7pK3lov-40">
          <mxGeometry y="60" width="260" height="26" as="geometry" />
        </mxCell>
        <mxCell id="WFpVP7fEPTeog7pK3lov-56" value="8: HandleEncodedFrame" style="edgeStyle=orthogonalEdgeStyle;rounded=0;orthogonalLoop=1;jettySize=auto;html=1;" edge="1" parent="1" source="WFpVP7fEPTeog7pK3lov-46" target="WFpVP7fEPTeog7pK3lov-52">
          <mxGeometry relative="1" as="geometry" />
        </mxCell>
        <mxCell id="WFpVP7fEPTeog7pK3lov-46" value="webrtc::RtpVideoStreamReceiver" style="swimlane;fontStyle=1;align=center;verticalAlign=top;childLayout=stackLayout;horizontal=1;startSize=26;horizontalStack=0;resizeParent=1;resizeParentMax=0;resizeLast=0;collapsible=1;marginBottom=0;whiteSpace=wrap;html=1;" vertex="1" collapsed="1" parent="1">
          <mxGeometry x="460" y="370" width="290" height="30" as="geometry">
            <mxRectangle x="200" y="460" width="260" height="86" as="alternateBounds" />
          </mxGeometry>
        </mxCell>
        <mxCell id="WFpVP7fEPTeog7pK3lov-47" value="+ field: type" style="text;strokeColor=none;fillColor=none;align=left;verticalAlign=top;spacingLeft=4;spacingRight=4;overflow=hidden;rotatable=0;points=[[0,0.5],[1,0.5]];portConstraint=eastwest;whiteSpace=wrap;html=1;" vertex="1" parent="WFpVP7fEPTeog7pK3lov-46">
          <mxGeometry y="26" width="260" height="26" as="geometry" />
        </mxCell>
        <mxCell id="WFpVP7fEPTeog7pK3lov-48" value="" style="line;strokeWidth=1;fillColor=none;align=left;verticalAlign=middle;spacingTop=-1;spacingLeft=3;spacingRight=3;rotatable=0;labelPosition=right;points=[];portConstraint=eastwest;strokeColor=inherit;" vertex="1" parent="WFpVP7fEPTeog7pK3lov-46">
          <mxGeometry y="52" width="260" height="8" as="geometry" />
        </mxCell>
        <mxCell id="WFpVP7fEPTeog7pK3lov-49" value="+ method(type): type" style="text;strokeColor=none;fillColor=none;align=left;verticalAlign=top;spacingLeft=4;spacingRight=4;overflow=hidden;rotatable=0;points=[[0,0.5],[1,0.5]];portConstraint=eastwest;whiteSpace=wrap;html=1;" vertex="1" parent="WFpVP7fEPTeog7pK3lov-46">
          <mxGeometry y="60" width="260" height="26" as="geometry" />
        </mxCell>
        <mxCell id="WFpVP7fEPTeog7pK3lov-87" style="edgeStyle=orthogonalEdgeStyle;rounded=0;orthogonalLoop=1;jettySize=auto;html=1;exitX=0.75;exitY=1;exitDx=0;exitDy=0;entryX=0.5;entryY=1;entryDx=0;entryDy=0;" edge="1" parent="1" source="WFpVP7fEPTeog7pK3lov-52" target="WFpVP7fEPTeog7pK3lov-79">
          <mxGeometry relative="1" as="geometry" />
        </mxCell>
        <mxCell id="WFpVP7fEPTeog7pK3lov-88" value="9: InsertFrame" style="edgeLabel;html=1;align=center;verticalAlign=middle;resizable=0;points=[];" vertex="1" connectable="0" parent="WFpVP7fEPTeog7pK3lov-87">
          <mxGeometry x="-0.2312" y="1" relative="1" as="geometry">
            <mxPoint x="39" as="offset" />
          </mxGeometry>
        </mxCell>
        <mxCell id="WFpVP7fEPTeog7pK3lov-95" style="edgeStyle=orthogonalEdgeStyle;rounded=0;orthogonalLoop=1;jettySize=auto;html=1;" edge="1" parent="1" source="WFpVP7fEPTeog7pK3lov-52" target="WFpVP7fEPTeog7pK3lov-68">
          <mxGeometry relative="1" as="geometry" />
        </mxCell>
        <mxCell id="WFpVP7fEPTeog7pK3lov-96" value="11: Decode" style="edgeLabel;html=1;align=center;verticalAlign=middle;resizable=0;points=[];" vertex="1" connectable="0" parent="WFpVP7fEPTeog7pK3lov-95">
          <mxGeometry x="0.0375" y="-1" relative="1" as="geometry">
            <mxPoint x="1" y="1" as="offset" />
          </mxGeometry>
        </mxCell>
        <mxCell id="WFpVP7fEPTeog7pK3lov-52" value="webrtc::internal::VideoReceiveStream" style="swimlane;fontStyle=1;align=center;verticalAlign=top;childLayout=stackLayout;horizontal=1;startSize=26;horizontalStack=0;resizeParent=1;resizeParentMax=0;resizeLast=0;collapsible=1;marginBottom=0;whiteSpace=wrap;html=1;" vertex="1" collapsed="1" parent="1">
          <mxGeometry x="920" y="370" width="263" height="30" as="geometry">
            <mxRectangle x="200" y="460" width="260" height="86" as="alternateBounds" />
          </mxGeometry>
        </mxCell>
        <mxCell id="WFpVP7fEPTeog7pK3lov-53" value="+ field: type" style="text;strokeColor=none;fillColor=none;align=left;verticalAlign=top;spacingLeft=4;spacingRight=4;overflow=hidden;rotatable=0;points=[[0,0.5],[1,0.5]];portConstraint=eastwest;whiteSpace=wrap;html=1;" vertex="1" parent="WFpVP7fEPTeog7pK3lov-52">
          <mxGeometry y="26" width="260" height="26" as="geometry" />
        </mxCell>
        <mxCell id="WFpVP7fEPTeog7pK3lov-54" value="" style="line;strokeWidth=1;fillColor=none;align=left;verticalAlign=middle;spacingTop=-1;spacingLeft=3;spacingRight=3;rotatable=0;labelPosition=right;points=[];portConstraint=eastwest;strokeColor=inherit;" vertex="1" parent="WFpVP7fEPTeog7pK3lov-52">
          <mxGeometry y="52" width="260" height="8" as="geometry" />
        </mxCell>
        <mxCell id="WFpVP7fEPTeog7pK3lov-55" value="+ method(type): type" style="text;strokeColor=none;fillColor=none;align=left;verticalAlign=top;spacingLeft=4;spacingRight=4;overflow=hidden;rotatable=0;points=[[0,0.5],[1,0.5]];portConstraint=eastwest;whiteSpace=wrap;html=1;" vertex="1" parent="WFpVP7fEPTeog7pK3lov-52">
          <mxGeometry y="60" width="260" height="26" as="geometry" />
        </mxCell>
        <mxCell id="WFpVP7fEPTeog7pK3lov-62" style="edgeStyle=orthogonalEdgeStyle;rounded=0;orthogonalLoop=1;jettySize=auto;html=1;exitX=0.25;exitY=0;exitDx=0;exitDy=0;entryX=0.75;entryY=0;entryDx=0;entryDy=0;" edge="1" parent="1" source="WFpVP7fEPTeog7pK3lov-46" target="WFpVP7fEPTeog7pK3lov-46">
          <mxGeometry relative="1" as="geometry">
            <Array as="points">
              <mxPoint x="533" y="350" />
              <mxPoint x="678" y="350" />
              <mxPoint x="678" y="360" />
            </Array>
          </mxGeometry>
        </mxCell>
        <mxCell id="WFpVP7fEPTeog7pK3lov-63" value="6: OnAssembledFrame" style="edgeLabel;html=1;align=center;verticalAlign=middle;resizable=0;points=[];" vertex="1" connectable="0" parent="WFpVP7fEPTeog7pK3lov-62">
          <mxGeometry x="0.2668" y="1" relative="1" as="geometry">
            <mxPoint x="-25" as="offset" />
          </mxGeometry>
        </mxCell>
        <mxCell id="WFpVP7fEPTeog7pK3lov-64" style="edgeStyle=orthogonalEdgeStyle;rounded=0;orthogonalLoop=1;jettySize=auto;html=1;exitX=0.25;exitY=1;exitDx=0;exitDy=0;entryX=0.75;entryY=1;entryDx=0;entryDy=0;" edge="1" parent="1" source="WFpVP7fEPTeog7pK3lov-46" target="WFpVP7fEPTeog7pK3lov-46">
          <mxGeometry relative="1" as="geometry" />
        </mxCell>
        <mxCell id="WFpVP7fEPTeog7pK3lov-67" value="7:&amp;nbsp;OnCompleteFrame" style="edgeLabel;html=1;align=center;verticalAlign=middle;resizable=0;points=[];" vertex="1" connectable="0" parent="WFpVP7fEPTeog7pK3lov-64">
          <mxGeometry x="-0.1405" y="-2" relative="1" as="geometry">
            <mxPoint x="13" as="offset" />
          </mxGeometry>
        </mxCell>
        <mxCell id="WFpVP7fEPTeog7pK3lov-78" value="12: Decode" style="edgeStyle=orthogonalEdgeStyle;rounded=0;orthogonalLoop=1;jettySize=auto;html=1;" edge="1" parent="1" source="WFpVP7fEPTeog7pK3lov-68" target="WFpVP7fEPTeog7pK3lov-74">
          <mxGeometry relative="1" as="geometry" />
        </mxCell>
        <mxCell id="WFpVP7fEPTeog7pK3lov-68" value="webrtc::vcm::VideoReceiver" style="swimlane;fontStyle=1;align=center;verticalAlign=top;childLayout=stackLayout;horizontal=1;startSize=26;horizontalStack=0;resizeParent=1;resizeParentMax=0;resizeLast=0;collapsible=1;marginBottom=0;whiteSpace=wrap;html=1;" vertex="1" collapsed="1" parent="1">
          <mxGeometry x="920" y="260" width="263" height="30" as="geometry">
            <mxRectangle x="200" y="460" width="260" height="86" as="alternateBounds" />
          </mxGeometry>
        </mxCell>
        <mxCell id="WFpVP7fEPTeog7pK3lov-69" value="+ field: type" style="text;strokeColor=none;fillColor=none;align=left;verticalAlign=top;spacingLeft=4;spacingRight=4;overflow=hidden;rotatable=0;points=[[0,0.5],[1,0.5]];portConstraint=eastwest;whiteSpace=wrap;html=1;" vertex="1" parent="WFpVP7fEPTeog7pK3lov-68">
          <mxGeometry y="26" width="260" height="26" as="geometry" />
        </mxCell>
        <mxCell id="WFpVP7fEPTeog7pK3lov-70" value="" style="line;strokeWidth=1;fillColor=none;align=left;verticalAlign=middle;spacingTop=-1;spacingLeft=3;spacingRight=3;rotatable=0;labelPosition=right;points=[];portConstraint=eastwest;strokeColor=inherit;" vertex="1" parent="WFpVP7fEPTeog7pK3lov-68">
          <mxGeometry y="52" width="260" height="8" as="geometry" />
        </mxCell>
        <mxCell id="WFpVP7fEPTeog7pK3lov-71" value="+ method(type): type" style="text;strokeColor=none;fillColor=none;align=left;verticalAlign=top;spacingLeft=4;spacingRight=4;overflow=hidden;rotatable=0;points=[[0,0.5],[1,0.5]];portConstraint=eastwest;whiteSpace=wrap;html=1;" vertex="1" parent="WFpVP7fEPTeog7pK3lov-68">
          <mxGeometry y="60" width="260" height="26" as="geometry" />
        </mxCell>
        <mxCell id="WFpVP7fEPTeog7pK3lov-101" style="edgeStyle=orthogonalEdgeStyle;rounded=0;orthogonalLoop=1;jettySize=auto;html=1;" edge="1" parent="1" source="WFpVP7fEPTeog7pK3lov-74" target="WFpVP7fEPTeog7pK3lov-97">
          <mxGeometry relative="1" as="geometry" />
        </mxCell>
        <mxCell id="WFpVP7fEPTeog7pK3lov-102" value="13: Decode" style="edgeLabel;html=1;align=center;verticalAlign=middle;resizable=0;points=[];" vertex="1" connectable="0" parent="WFpVP7fEPTeog7pK3lov-101">
          <mxGeometry x="-0.1481" y="4" relative="1" as="geometry">
            <mxPoint x="-11" y="-4" as="offset" />
          </mxGeometry>
        </mxCell>
        <mxCell id="WFpVP7fEPTeog7pK3lov-74" value="webrtc::VCMGenericDecoder" style="swimlane;fontStyle=1;align=center;verticalAlign=top;childLayout=stackLayout;horizontal=1;startSize=26;horizontalStack=0;resizeParent=1;resizeParentMax=0;resizeLast=0;collapsible=1;marginBottom=0;whiteSpace=wrap;html=1;" vertex="1" collapsed="1" parent="1">
          <mxGeometry x="607" y="260" width="203" height="30" as="geometry">
            <mxRectangle x="200" y="460" width="260" height="86" as="alternateBounds" />
          </mxGeometry>
        </mxCell>
        <mxCell id="WFpVP7fEPTeog7pK3lov-75" value="+ field: type" style="text;strokeColor=none;fillColor=none;align=left;verticalAlign=top;spacingLeft=4;spacingRight=4;overflow=hidden;rotatable=0;points=[[0,0.5],[1,0.5]];portConstraint=eastwest;whiteSpace=wrap;html=1;" vertex="1" parent="WFpVP7fEPTeog7pK3lov-74">
          <mxGeometry y="26" width="260" height="26" as="geometry" />
        </mxCell>
        <mxCell id="WFpVP7fEPTeog7pK3lov-76" value="" style="line;strokeWidth=1;fillColor=none;align=left;verticalAlign=middle;spacingTop=-1;spacingLeft=3;spacingRight=3;rotatable=0;labelPosition=right;points=[];portConstraint=eastwest;strokeColor=inherit;" vertex="1" parent="WFpVP7fEPTeog7pK3lov-74">
          <mxGeometry y="52" width="260" height="8" as="geometry" />
        </mxCell>
        <mxCell id="WFpVP7fEPTeog7pK3lov-77" value="+ method(type): type" style="text;strokeColor=none;fillColor=none;align=left;verticalAlign=top;spacingLeft=4;spacingRight=4;overflow=hidden;rotatable=0;points=[[0,0.5],[1,0.5]];portConstraint=eastwest;whiteSpace=wrap;html=1;" vertex="1" parent="WFpVP7fEPTeog7pK3lov-74">
          <mxGeometry y="60" width="260" height="26" as="geometry" />
        </mxCell>
        <mxCell id="WFpVP7fEPTeog7pK3lov-89" style="edgeStyle=orthogonalEdgeStyle;rounded=0;orthogonalLoop=1;jettySize=auto;html=1;exitX=0.5;exitY=0;exitDx=0;exitDy=0;entryX=0.75;entryY=0;entryDx=0;entryDy=0;" edge="1" parent="1" source="WFpVP7fEPTeog7pK3lov-79" target="WFpVP7fEPTeog7pK3lov-52">
          <mxGeometry relative="1" as="geometry" />
        </mxCell>
        <mxCell id="WFpVP7fEPTeog7pK3lov-90" value="10: NextFrame&amp;nbsp;" style="edgeLabel;html=1;align=center;verticalAlign=middle;resizable=0;points=[];" vertex="1" connectable="0" parent="WFpVP7fEPTeog7pK3lov-89">
          <mxGeometry x="-0.0976" y="-2" relative="1" as="geometry">
            <mxPoint as="offset" />
          </mxGeometry>
        </mxCell>
        <mxCell id="WFpVP7fEPTeog7pK3lov-79" value="webrtc::video_coding::FrameBuffer" style="swimlane;fontStyle=1;align=center;verticalAlign=top;childLayout=stackLayout;horizontal=1;startSize=26;horizontalStack=0;resizeParent=1;resizeParentMax=0;resizeLast=0;collapsible=1;marginBottom=0;whiteSpace=wrap;html=1;" vertex="1" collapsed="1" parent="1">
          <mxGeometry x="1241" y="370" width="240" height="30" as="geometry">
            <mxRectangle x="200" y="460" width="260" height="86" as="alternateBounds" />
          </mxGeometry>
        </mxCell>
        <mxCell id="WFpVP7fEPTeog7pK3lov-80" value="+ field: type" style="text;strokeColor=none;fillColor=none;align=left;verticalAlign=top;spacingLeft=4;spacingRight=4;overflow=hidden;rotatable=0;points=[[0,0.5],[1,0.5]];portConstraint=eastwest;whiteSpace=wrap;html=1;" vertex="1" parent="WFpVP7fEPTeog7pK3lov-79">
          <mxGeometry y="26" width="260" height="26" as="geometry" />
        </mxCell>
        <mxCell id="WFpVP7fEPTeog7pK3lov-81" value="" style="line;strokeWidth=1;fillColor=none;align=left;verticalAlign=middle;spacingTop=-1;spacingLeft=3;spacingRight=3;rotatable=0;labelPosition=right;points=[];portConstraint=eastwest;strokeColor=inherit;" vertex="1" parent="WFpVP7fEPTeog7pK3lov-79">
          <mxGeometry y="52" width="260" height="8" as="geometry" />
        </mxCell>
        <mxCell id="WFpVP7fEPTeog7pK3lov-82" value="+ method(type): type" style="text;strokeColor=none;fillColor=none;align=left;verticalAlign=top;spacingLeft=4;spacingRight=4;overflow=hidden;rotatable=0;points=[[0,0.5],[1,0.5]];portConstraint=eastwest;whiteSpace=wrap;html=1;" vertex="1" parent="WFpVP7fEPTeog7pK3lov-79">
          <mxGeometry y="60" width="260" height="26" as="geometry" />
        </mxCell>
        <mxCell id="WFpVP7fEPTeog7pK3lov-91" style="edgeStyle=orthogonalEdgeStyle;rounded=0;orthogonalLoop=1;jettySize=auto;html=1;exitX=0.5;exitY=1;exitDx=0;exitDy=0;entryX=0.25;entryY=1;entryDx=0;entryDy=0;" edge="1" parent="1" source="WFpVP7fEPTeog7pK3lov-52" target="WFpVP7fEPTeog7pK3lov-52">
          <mxGeometry relative="1" as="geometry" />
        </mxCell>
        <mxCell id="WFpVP7fEPTeog7pK3lov-92" value="11:HandleEncodedFrame" style="edgeLabel;html=1;align=center;verticalAlign=middle;resizable=0;points=[];" vertex="1" connectable="0" parent="WFpVP7fEPTeog7pK3lov-91">
          <mxGeometry x="-0.1958" relative="1" as="geometry">
            <mxPoint x="1" y="10" as="offset" />
          </mxGeometry>
        </mxCell>
        <mxCell id="WFpVP7fEPTeog7pK3lov-94" value="解码线程: decode_queue" style="shape=callout;whiteSpace=wrap;html=1;perimeter=calloutPerimeter;position2=0.25;" vertex="1" parent="1">
          <mxGeometry x="1310" y="280" width="120" height="70" as="geometry" />
        </mxCell>
        <mxCell id="WFpVP7fEPTeog7pK3lov-107" style="edgeStyle=orthogonalEdgeStyle;rounded=0;orthogonalLoop=1;jettySize=auto;html=1;" edge="1" parent="1" source="WFpVP7fEPTeog7pK3lov-97" target="WFpVP7fEPTeog7pK3lov-103">
          <mxGeometry relative="1" as="geometry" />
        </mxCell>
        <mxCell id="WFpVP7fEPTeog7pK3lov-108" value="14:Decode" style="edgeLabel;html=1;align=center;verticalAlign=middle;resizable=0;points=[];" vertex="1" connectable="0" parent="WFpVP7fEPTeog7pK3lov-107">
          <mxGeometry x="-0.0167" y="-2" relative="1" as="geometry">
            <mxPoint x="1" as="offset" />
          </mxGeometry>
        </mxCell>
        <mxCell id="WFpVP7fEPTeog7pK3lov-97" value="webrtc::VideoDecoderSoftwareFallbackWrapper" style="swimlane;fontStyle=1;align=center;verticalAlign=top;childLayout=stackLayout;horizontal=1;startSize=26;horizontalStack=0;resizeParent=1;resizeParentMax=0;resizeLast=0;collapsible=1;marginBottom=0;whiteSpace=wrap;html=1;" vertex="1" collapsed="1" parent="1">
          <mxGeometry x="200" y="260" width="299" height="30" as="geometry">
            <mxRectangle x="200" y="460" width="260" height="86" as="alternateBounds" />
          </mxGeometry>
        </mxCell>
        <mxCell id="WFpVP7fEPTeog7pK3lov-98" value="+ field: type" style="text;strokeColor=none;fillColor=none;align=left;verticalAlign=top;spacingLeft=4;spacingRight=4;overflow=hidden;rotatable=0;points=[[0,0.5],[1,0.5]];portConstraint=eastwest;whiteSpace=wrap;html=1;" vertex="1" parent="WFpVP7fEPTeog7pK3lov-97">
          <mxGeometry y="26" width="260" height="26" as="geometry" />
        </mxCell>
        <mxCell id="WFpVP7fEPTeog7pK3lov-99" value="" style="line;strokeWidth=1;fillColor=none;align=left;verticalAlign=middle;spacingTop=-1;spacingLeft=3;spacingRight=3;rotatable=0;labelPosition=right;points=[];portConstraint=eastwest;strokeColor=inherit;" vertex="1" parent="WFpVP7fEPTeog7pK3lov-97">
          <mxGeometry y="52" width="260" height="8" as="geometry" />
        </mxCell>
        <mxCell id="WFpVP7fEPTeog7pK3lov-100" value="+ method(type): type" style="text;strokeColor=none;fillColor=none;align=left;verticalAlign=top;spacingLeft=4;spacingRight=4;overflow=hidden;rotatable=0;points=[[0,0.5],[1,0.5]];portConstraint=eastwest;whiteSpace=wrap;html=1;" vertex="1" parent="WFpVP7fEPTeog7pK3lov-97">
          <mxGeometry y="60" width="260" height="26" as="geometry" />
        </mxCell>
        <mxCell id="WFpVP7fEPTeog7pK3lov-113" style="edgeStyle=orthogonalEdgeStyle;rounded=0;orthogonalLoop=1;jettySize=auto;html=1;" edge="1" parent="1" source="WFpVP7fEPTeog7pK3lov-103" target="WFpVP7fEPTeog7pK3lov-109">
          <mxGeometry relative="1" as="geometry" />
        </mxCell>
        <mxCell id="WFpVP7fEPTeog7pK3lov-114" value="15: Decode" style="edgeLabel;html=1;align=center;verticalAlign=middle;resizable=0;points=[];" vertex="1" connectable="0" parent="WFpVP7fEPTeog7pK3lov-113">
          <mxGeometry x="0.0989" y="1" relative="1" as="geometry">
            <mxPoint x="-8" y="1" as="offset" />
          </mxGeometry>
        </mxCell>
        <mxCell id="WFpVP7fEPTeog7pK3lov-103" value="webrtc::jni::VideoDecoderWrapper" style="swimlane;fontStyle=1;align=center;verticalAlign=top;childLayout=stackLayout;horizontal=1;startSize=26;horizontalStack=0;resizeParent=1;resizeParentMax=0;resizeLast=0;collapsible=1;marginBottom=0;whiteSpace=wrap;html=1;" vertex="1" collapsed="1" parent="1">
          <mxGeometry x="200" y="170" width="299" height="30" as="geometry">
            <mxRectangle x="200" y="460" width="260" height="86" as="alternateBounds" />
          </mxGeometry>
        </mxCell>
        <mxCell id="WFpVP7fEPTeog7pK3lov-104" value="+ field: type" style="text;strokeColor=none;fillColor=none;align=left;verticalAlign=top;spacingLeft=4;spacingRight=4;overflow=hidden;rotatable=0;points=[[0,0.5],[1,0.5]];portConstraint=eastwest;whiteSpace=wrap;html=1;" vertex="1" parent="WFpVP7fEPTeog7pK3lov-103">
          <mxGeometry y="26" width="260" height="26" as="geometry" />
        </mxCell>
        <mxCell id="WFpVP7fEPTeog7pK3lov-105" value="" style="line;strokeWidth=1;fillColor=none;align=left;verticalAlign=middle;spacingTop=-1;spacingLeft=3;spacingRight=3;rotatable=0;labelPosition=right;points=[];portConstraint=eastwest;strokeColor=inherit;" vertex="1" parent="WFpVP7fEPTeog7pK3lov-103">
          <mxGeometry y="52" width="260" height="8" as="geometry" />
        </mxCell>
        <mxCell id="WFpVP7fEPTeog7pK3lov-106" value="+ method(type): type" style="text;strokeColor=none;fillColor=none;align=left;verticalAlign=top;spacingLeft=4;spacingRight=4;overflow=hidden;rotatable=0;points=[[0,0.5],[1,0.5]];portConstraint=eastwest;whiteSpace=wrap;html=1;" vertex="1" parent="WFpVP7fEPTeog7pK3lov-103">
          <mxGeometry y="60" width="260" height="26" as="geometry" />
        </mxCell>
        <mxCell id="WFpVP7fEPTeog7pK3lov-122" style="edgeStyle=orthogonalEdgeStyle;rounded=0;orthogonalLoop=1;jettySize=auto;html=1;exitX=0.5;exitY=0;exitDx=0;exitDy=0;" edge="1" parent="1" source="WFpVP7fEPTeog7pK3lov-109" target="WFpVP7fEPTeog7pK3lov-115">
          <mxGeometry relative="1" as="geometry" />
        </mxCell>
        <mxCell id="WFpVP7fEPTeog7pK3lov-123" value="16: decode" style="edgeLabel;html=1;align=center;verticalAlign=middle;resizable=0;points=[];" vertex="1" connectable="0" parent="WFpVP7fEPTeog7pK3lov-122">
          <mxGeometry x="0.1824" y="2" relative="1" as="geometry">
            <mxPoint x="34" y="-2" as="offset" />
          </mxGeometry>
        </mxCell>
        <mxCell id="WFpVP7fEPTeog7pK3lov-109" value="webrtc::jni::Java_VideoDecoder_decode" style="swimlane;fontStyle=1;align=center;verticalAlign=top;childLayout=stackLayout;horizontal=1;startSize=26;horizontalStack=0;resizeParent=1;resizeParentMax=0;resizeLast=0;collapsible=1;marginBottom=0;whiteSpace=wrap;html=1;" vertex="1" collapsed="1" parent="1">
          <mxGeometry x="606" y="170" width="299" height="30" as="geometry">
            <mxRectangle x="200" y="460" width="260" height="86" as="alternateBounds" />
          </mxGeometry>
        </mxCell>
        <mxCell id="WFpVP7fEPTeog7pK3lov-110" value="+ field: type" style="text;strokeColor=none;fillColor=none;align=left;verticalAlign=top;spacingLeft=4;spacingRight=4;overflow=hidden;rotatable=0;points=[[0,0.5],[1,0.5]];portConstraint=eastwest;whiteSpace=wrap;html=1;" vertex="1" parent="WFpVP7fEPTeog7pK3lov-109">
          <mxGeometry y="26" width="260" height="26" as="geometry" />
        </mxCell>
        <mxCell id="WFpVP7fEPTeog7pK3lov-111" value="" style="line;strokeWidth=1;fillColor=none;align=left;verticalAlign=middle;spacingTop=-1;spacingLeft=3;spacingRight=3;rotatable=0;labelPosition=right;points=[];portConstraint=eastwest;strokeColor=inherit;" vertex="1" parent="WFpVP7fEPTeog7pK3lov-109">
          <mxGeometry y="52" width="260" height="8" as="geometry" />
        </mxCell>
        <mxCell id="WFpVP7fEPTeog7pK3lov-112" value="+ method(type): type" style="text;strokeColor=none;fillColor=none;align=left;verticalAlign=top;spacingLeft=4;spacingRight=4;overflow=hidden;rotatable=0;points=[[0,0.5],[1,0.5]];portConstraint=eastwest;whiteSpace=wrap;html=1;" vertex="1" parent="WFpVP7fEPTeog7pK3lov-109">
          <mxGeometry y="60" width="260" height="26" as="geometry" />
        </mxCell>
        <mxCell id="WFpVP7fEPTeog7pK3lov-128" style="edgeStyle=orthogonalEdgeStyle;rounded=0;orthogonalLoop=1;jettySize=auto;html=1;dashed=1;" edge="1" parent="1" source="WFpVP7fEPTeog7pK3lov-115" target="WFpVP7fEPTeog7pK3lov-124">
          <mxGeometry relative="1" as="geometry" />
        </mxCell>
        <mxCell id="WFpVP7fEPTeog7pK3lov-129" value="17: decode" style="edgeLabel;html=1;align=center;verticalAlign=middle;resizable=0;points=[];" vertex="1" connectable="0" parent="WFpVP7fEPTeog7pK3lov-128">
          <mxGeometry x="-0.04" y="-1" relative="1" as="geometry">
            <mxPoint x="-4" y="-1" as="offset" />
          </mxGeometry>
        </mxCell>
        <mxCell id="WFpVP7fEPTeog7pK3lov-144" style="edgeStyle=orthogonalEdgeStyle;rounded=0;orthogonalLoop=1;jettySize=auto;html=1;" edge="1" parent="1" source="WFpVP7fEPTeog7pK3lov-115" target="WFpVP7fEPTeog7pK3lov-140">
          <mxGeometry relative="1" as="geometry" />
        </mxCell>
        <mxCell id="WFpVP7fEPTeog7pK3lov-145" value="20: nativeOnDecodedFrame" style="edgeLabel;html=1;align=center;verticalAlign=middle;resizable=0;points=[];" vertex="1" connectable="0" parent="WFpVP7fEPTeog7pK3lov-144">
          <mxGeometry x="-0.2522" y="-1" relative="1" as="geometry">
            <mxPoint x="26" y="-1" as="offset" />
          </mxGeometry>
        </mxCell>
        <mxCell id="WFpVP7fEPTeog7pK3lov-115" value="org.webrtc.AndroidVideoDecoder" style="swimlane;fontStyle=1;align=center;verticalAlign=top;childLayout=stackLayout;horizontal=1;startSize=26;horizontalStack=0;resizeParent=1;resizeParentMax=0;resizeLast=0;collapsible=1;marginBottom=0;whiteSpace=wrap;html=1;" vertex="1" collapsed="1" parent="1">
          <mxGeometry x="320" y="80" width="255" height="30" as="geometry">
            <mxRectangle x="628" y="90" width="260" height="86" as="alternateBounds" />
          </mxGeometry>
        </mxCell>
        <mxCell id="WFpVP7fEPTeog7pK3lov-116" value="+ field: type" style="text;strokeColor=none;fillColor=none;align=left;verticalAlign=top;spacingLeft=4;spacingRight=4;overflow=hidden;rotatable=0;points=[[0,0.5],[1,0.5]];portConstraint=eastwest;whiteSpace=wrap;html=1;" vertex="1" parent="WFpVP7fEPTeog7pK3lov-115">
          <mxGeometry y="26" width="260" height="26" as="geometry" />
        </mxCell>
        <mxCell id="WFpVP7fEPTeog7pK3lov-117" value="" style="line;strokeWidth=1;fillColor=none;align=left;verticalAlign=middle;spacingTop=-1;spacingLeft=3;spacingRight=3;rotatable=0;labelPosition=right;points=[];portConstraint=eastwest;strokeColor=inherit;" vertex="1" parent="WFpVP7fEPTeog7pK3lov-115">
          <mxGeometry y="52" width="260" height="8" as="geometry" />
        </mxCell>
        <mxCell id="WFpVP7fEPTeog7pK3lov-118" value="+ method(type): type" style="text;strokeColor=none;fillColor=none;align=left;verticalAlign=top;spacingLeft=4;spacingRight=4;overflow=hidden;rotatable=0;points=[[0,0.5],[1,0.5]];portConstraint=eastwest;whiteSpace=wrap;html=1;" vertex="1" parent="WFpVP7fEPTeog7pK3lov-115">
          <mxGeometry y="60" width="260" height="26" as="geometry" />
        </mxCell>
        <mxCell id="WFpVP7fEPTeog7pK3lov-135" style="edgeStyle=orthogonalEdgeStyle;rounded=0;orthogonalLoop=1;jettySize=auto;html=1;dashed=1;" edge="1" parent="1" source="WFpVP7fEPTeog7pK3lov-124" target="WFpVP7fEPTeog7pK3lov-131">
          <mxGeometry relative="1" as="geometry" />
        </mxCell>
        <mxCell id="WFpVP7fEPTeog7pK3lov-136" value="18:&amp;nbsp;onFrameAvailable&amp;nbsp;" style="edgeLabel;html=1;align=center;verticalAlign=middle;resizable=0;points=[];" vertex="1" connectable="0" parent="WFpVP7fEPTeog7pK3lov-135">
          <mxGeometry x="-0.1" y="4" relative="1" as="geometry">
            <mxPoint x="1" y="1" as="offset" />
          </mxGeometry>
        </mxCell>
        <mxCell id="WFpVP7fEPTeog7pK3lov-124" value="MediaCodec" style="swimlane;fontStyle=1;align=center;verticalAlign=top;childLayout=stackLayout;horizontal=1;startSize=26;horizontalStack=0;resizeParent=1;resizeParentMax=0;resizeLast=0;collapsible=1;marginBottom=0;whiteSpace=wrap;html=1;" vertex="1" collapsed="1" parent="1">
          <mxGeometry x="75" y="80" width="125" height="30" as="geometry">
            <mxRectangle x="628" y="90" width="260" height="86" as="alternateBounds" />
          </mxGeometry>
        </mxCell>
        <mxCell id="WFpVP7fEPTeog7pK3lov-125" value="+ field: type" style="text;strokeColor=none;fillColor=none;align=left;verticalAlign=top;spacingLeft=4;spacingRight=4;overflow=hidden;rotatable=0;points=[[0,0.5],[1,0.5]];portConstraint=eastwest;whiteSpace=wrap;html=1;" vertex="1" parent="WFpVP7fEPTeog7pK3lov-124">
          <mxGeometry y="26" width="260" height="26" as="geometry" />
        </mxCell>
        <mxCell id="WFpVP7fEPTeog7pK3lov-126" value="" style="line;strokeWidth=1;fillColor=none;align=left;verticalAlign=middle;spacingTop=-1;spacingLeft=3;spacingRight=3;rotatable=0;labelPosition=right;points=[];portConstraint=eastwest;strokeColor=inherit;" vertex="1" parent="WFpVP7fEPTeog7pK3lov-124">
          <mxGeometry y="52" width="260" height="8" as="geometry" />
        </mxCell>
        <mxCell id="WFpVP7fEPTeog7pK3lov-127" value="+ method(type): type" style="text;strokeColor=none;fillColor=none;align=left;verticalAlign=top;spacingLeft=4;spacingRight=4;overflow=hidden;rotatable=0;points=[[0,0.5],[1,0.5]];portConstraint=eastwest;whiteSpace=wrap;html=1;" vertex="1" parent="WFpVP7fEPTeog7pK3lov-124">
          <mxGeometry y="60" width="260" height="26" as="geometry" />
        </mxCell>
        <mxCell id="WFpVP7fEPTeog7pK3lov-138" style="edgeStyle=orthogonalEdgeStyle;rounded=0;orthogonalLoop=1;jettySize=auto;html=1;" edge="1" parent="1" source="WFpVP7fEPTeog7pK3lov-131" target="WFpVP7fEPTeog7pK3lov-115">
          <mxGeometry relative="1" as="geometry" />
        </mxCell>
        <mxCell id="WFpVP7fEPTeog7pK3lov-139" value="19: onFrame" style="edgeLabel;html=1;align=center;verticalAlign=middle;resizable=0;points=[];" vertex="1" connectable="0" parent="WFpVP7fEPTeog7pK3lov-138">
          <mxGeometry x="-0.0447" y="2" relative="1" as="geometry">
            <mxPoint y="1" as="offset" />
          </mxGeometry>
        </mxCell>
        <mxCell id="WFpVP7fEPTeog7pK3lov-131" value="org.webrtc.SurfaceTextureHelper" style="swimlane;fontStyle=1;align=center;verticalAlign=top;childLayout=stackLayout;horizontal=1;startSize=26;horizontalStack=0;resizeParent=1;resizeParentMax=0;resizeLast=0;collapsible=1;marginBottom=0;whiteSpace=wrap;html=1;" vertex="1" collapsed="1" parent="1">
          <mxGeometry x="10" y="-10" width="255" height="30" as="geometry">
            <mxRectangle x="490" y="10" width="260" height="86" as="alternateBounds" />
          </mxGeometry>
        </mxCell>
        <mxCell id="WFpVP7fEPTeog7pK3lov-132" value="+ field: type" style="text;strokeColor=none;fillColor=none;align=left;verticalAlign=top;spacingLeft=4;spacingRight=4;overflow=hidden;rotatable=0;points=[[0,0.5],[1,0.5]];portConstraint=eastwest;whiteSpace=wrap;html=1;" vertex="1" parent="WFpVP7fEPTeog7pK3lov-131">
          <mxGeometry y="26" width="260" height="26" as="geometry" />
        </mxCell>
        <mxCell id="WFpVP7fEPTeog7pK3lov-133" value="" style="line;strokeWidth=1;fillColor=none;align=left;verticalAlign=middle;spacingTop=-1;spacingLeft=3;spacingRight=3;rotatable=0;labelPosition=right;points=[];portConstraint=eastwest;strokeColor=inherit;" vertex="1" parent="WFpVP7fEPTeog7pK3lov-131">
          <mxGeometry y="52" width="260" height="8" as="geometry" />
        </mxCell>
        <mxCell id="WFpVP7fEPTeog7pK3lov-134" value="+ method(type): type" style="text;strokeColor=none;fillColor=none;align=left;verticalAlign=top;spacingLeft=4;spacingRight=4;overflow=hidden;rotatable=0;points=[[0,0.5],[1,0.5]];portConstraint=eastwest;whiteSpace=wrap;html=1;" vertex="1" parent="WFpVP7fEPTeog7pK3lov-131">
          <mxGeometry y="60" width="260" height="26" as="geometry" />
        </mxCell>
        <mxCell id="WFpVP7fEPTeog7pK3lov-140" value="org.webrtc.VideoDecoderWrapper" style="swimlane;fontStyle=1;align=center;verticalAlign=top;childLayout=stackLayout;horizontal=1;startSize=26;horizontalStack=0;resizeParent=1;resizeParentMax=0;resizeLast=0;collapsible=1;marginBottom=0;whiteSpace=wrap;html=1;" vertex="1" collapsed="1" parent="1">
          <mxGeometry x="814" y="80" width="255" height="30" as="geometry">
            <mxRectangle x="628" y="90" width="260" height="86" as="alternateBounds" />
          </mxGeometry>
        </mxCell>
        <mxCell id="WFpVP7fEPTeog7pK3lov-141" value="+ field: type" style="text;strokeColor=none;fillColor=none;align=left;verticalAlign=top;spacingLeft=4;spacingRight=4;overflow=hidden;rotatable=0;points=[[0,0.5],[1,0.5]];portConstraint=eastwest;whiteSpace=wrap;html=1;" vertex="1" parent="WFpVP7fEPTeog7pK3lov-140">
          <mxGeometry y="26" width="260" height="26" as="geometry" />
        </mxCell>
        <mxCell id="WFpVP7fEPTeog7pK3lov-142" value="" style="line;strokeWidth=1;fillColor=none;align=left;verticalAlign=middle;spacingTop=-1;spacingLeft=3;spacingRight=3;rotatable=0;labelPosition=right;points=[];portConstraint=eastwest;strokeColor=inherit;" vertex="1" parent="WFpVP7fEPTeog7pK3lov-140">
          <mxGeometry y="52" width="260" height="8" as="geometry" />
        </mxCell>
        <mxCell id="WFpVP7fEPTeog7pK3lov-143" value="+ method(type): type" style="text;strokeColor=none;fillColor=none;align=left;verticalAlign=top;spacingLeft=4;spacingRight=4;overflow=hidden;rotatable=0;points=[[0,0.5],[1,0.5]];portConstraint=eastwest;whiteSpace=wrap;html=1;" vertex="1" parent="WFpVP7fEPTeog7pK3lov-140">
          <mxGeometry y="60" width="260" height="26" as="geometry" />
        </mxCell>
      </root>
    </mxGraphModel>
  </diagram>
</mxfile>
